<?xml version="1.0" encoding="iso-8859-1"?>
<!-- Generator: Adobe Illustrator 19.0.0, SVG Export Plug-In . SVG Version: 6.00 Build 0)  -->
<svg xmlns="http://www.w3.org/2000/svg" xmlns:xlink="http://www.w3.org/1999/xlink" version="1.1" id="Capa_1" x="0px" y="0px" viewBox="0 0 520 520" style="enable-background:new 0 0 520 520;" xml:space="preserve" width="512px" height="512px">
<g id="XMLID_934_">
	<rect id="XMLID_935_" x="245" y="295" width="30" height="110" fill="#FFFFFF"/>
	<path id="XMLID_936_" d="M396.056,75c-27.603,0-53.224,13.712-68.536,36.68c-9.735,14.603-26.025,23.32-43.575,23.32h-47.889   c-17.55,0-33.84-8.718-43.575-23.32C177.168,88.712,151.547,75,123.944,75C55.601,75,0,130.602,0,198.944V350   c0,17.551,8.718,33.84,23.32,43.574l50.478,33.652C91.24,438.854,111.539,445,132.5,445c20.69,0,40.736-5.988,58.024-17.325   L215,414.82V285.18l-24.476-12.854C173.236,260.988,153.19,255,132.5,255c-20.961,0-41.26,6.146-58.702,17.773L30,301.973V198.944   C30,147.144,72.143,105,123.944,105c17.55,0,33.84,8.718,43.575,23.32c15.312,22.968,40.933,36.68,68.536,36.68h47.889   c27.603,0,53.224-13.712,68.536-36.68c9.735-14.603,26.025-23.32,43.575-23.32C447.857,105,490,147.144,490,198.944v103.028   l-43.798-29.199C428.76,261.146,408.461,255,387.5,255c-20.69,0-40.736,5.988-58.024,17.325L305,285.18V414.82l24.476,12.854   C346.764,439.012,366.81,445,387.5,445c20.961,0,41.26-6.146,58.702-17.773l50.477-33.652C511.282,383.84,520,367.551,520,350   V198.944C520,130.602,464.399,75,396.056,75z M130,325c27.757,0,45,9.579,45,25s-17.243,25-45,25s-45-9.579-45-25   S102.243,325,130,325z M390,375c-27.757,0-45-9.579-45-25s17.243-25,45-25s45,9.579,45,25S417.757,375,390,375z" fill="#FFFFFF"/>
</g>















</svg>
