<?xml version="1.0" encoding="iso-8859-1"?>
<!-- Generator: Adobe Illustrator 18.1.1, SVG Export Plug-In . SVG Version: 6.00 Build 0)  -->
<svg xmlns="http://www.w3.org/2000/svg" xmlns:xlink="http://www.w3.org/1999/xlink" version="1.1" id="Capa_1" x="0px" y="0px" viewBox="0 0 59.926 59.926" style="enable-background:new 0 0 59.926 59.926;" xml:space="preserve" width="512px" height="512px">
<g>
	<path d="M36.901,49.459c-0.786-0.182-1.6-0.289-2.442-0.289c-3.327,0-6.459,1.538-8.525,4.148   c-2.07-2.61-5.202-4.148-8.527-4.148c-2.937,0-5.741,1.205-7.795,3.324c-2.053-2.119-4.861-3.324-7.797-3.324   c-0.619,0-1.224,0.066-1.815,0.167c0.815-2.738,3.089-4.898,5.995-5.964c5.56-2.044,11.198-3.848,16.862-5.575   C25.243,23.89,31.22,10.185,46.45,6.767c7.132-1.6,10.162,9.346,3.017,10.949c-9.518,2.136-13.334,10.566-15.073,19.298   C38.263,39.491,39.581,45.489,36.901,49.459z M50.197,25.047c-5.373,0-9.729,4.356-9.729,9.729s4.356,9.729,9.729,9.729   s9.729-4.356,9.729-9.729S55.57,25.047,50.197,25.047z" fill="#FFFFFF"/>
</g>
<g>
</g>
<g>
</g>
<g>
</g>
<g>
</g>
<g>
</g>
<g>
</g>
<g>
</g>
<g>
</g>
<g>
</g>
<g>
</g>
<g>
</g>
<g>
</g>
<g>
</g>
<g>
</g>
<g>
</g>
</svg>
