<?xml version="1.0" encoding="iso-8859-1"?>
<!-- Generator: Adobe Illustrator 16.0.0, SVG Export Plug-In . SVG Version: 6.00 Build 0)  -->
<!DOCTYPE svg PUBLIC "-//W3C//DTD SVG 1.1//EN" "http://www.w3.org/Graphics/SVG/1.1/DTD/svg11.dtd">
<svg xmlns="http://www.w3.org/2000/svg" xmlns:xlink="http://www.w3.org/1999/xlink" version="1.1" id="Capa_1" x="0px" y="0px" width="512px" height="512px" viewBox="0 0 555.899 555.9" style="enable-background:new 0 0 555.899 555.9;" xml:space="preserve">
<g>
	<path d="M395.25,254.224c-25.5-36.975-16.575-87.975,19.125-113.475s87.975-17.85,113.475,19.125s16.575,87.975-19.125,113.475   C471.75,300.125,420.75,291.2,395.25,254.224z M45.9,288.649c12.75,0,24.225-5.1,33.15-15.3l59.925-70.125l58.65,26.775   L36.975,343.474c-2.55,2.55-3.825,6.375-2.55,8.925s3.825,5.101,7.65,5.101h377.4c3.825,0,7.65-3.825,7.65-7.65   c0-17.85-5.101-36.975-16.575-52.275c0,0-39.525-56.1-52.275-73.95c-11.475-15.3-22.949-24.225-34.425-28.05   c-39.524-19.125-160.65-72.675-160.65-72.675c-28.05-12.75-62.475-5.1-82.875,19.125l-66.3,79.05   c-15.3,17.85-12.75,44.625,5.1,59.925C26.775,286.099,36.975,288.649,45.9,288.649z M530.399,390.649H24.225   C10.2,390.649,0,402.125,0,414.875c0,14.024,11.475,24.225,24.225,24.225h507.45c14.025,0,24.225-11.475,24.225-24.225   C555.899,400.849,544.425,390.649,530.399,390.649z" fill="#FFFFFF"/>
</g>
<g>
</g>
<g>
</g>
<g>
</g>
<g>
</g>
<g>
</g>
<g>
</g>
<g>
</g>
<g>
</g>
<g>
</g>
<g>
</g>
<g>
</g>
<g>
</g>
<g>
</g>
<g>
</g>
<g>
</g>
</svg>
