<?xml version="1.0" encoding="iso-8859-1"?>
<!-- Generator: Adobe Illustrator 18.0.0, SVG Export Plug-In . SVG Version: 6.00 Build 0)  -->
<!DOCTYPE svg PUBLIC "-//W3C//DTD SVG 1.1//EN" "http://www.w3.org/Graphics/SVG/1.1/DTD/svg11.dtd">
<svg xmlns="http://www.w3.org/2000/svg" xmlns:xlink="http://www.w3.org/1999/xlink" version="1.1" id="Capa_1" x="0px" y="0px" viewBox="0 0 458.052 458.052" style="enable-background:new 0 0 458.052 458.052;" xml:space="preserve" width="512px" height="512px">
<g>
	<path d="M387.72,305.282l-35.81-27.102l-47.756,1.934l-14.078,8.06l70.316,53.217c9.975,7.55,24.176,5.576,31.719-4.391   C399.657,327.029,397.691,312.829,387.72,305.282z" fill="#FFFFFF"/>
	<circle cx="69.69" cy="121.484" r="39.105" fill="#FFFFFF"/>
	<path d="M206.165,315.339l92.833-53.144l79.697-3.228c12.521-0.509,22.212-11.072,21.708-23.54   c-0.494-12.185-10.525-21.728-22.608-21.727c-0.309,0-0.62,0.006-0.932,0.019l-85.227,3.453c-3.633,0.146-7.177,1.167-10.333,2.972   l-97.635,55.892l53.374-48.462l-32.119-34.345l-62.333,9.906l72.244-29.822h0c5.718-2.452,9.966-7.628,11.123-13.938   c2.763-15.03,11.016-59.929,13.902-75.627c1.88-10.238-4.89-20.081-15.155-21.963c-10.206-1.873-20.089,4.927-21.963,15.155   l-11.775,64.197l0,0l-65.953,28.283l38.953-30.25l8.536-38.584c0.99-4.473,0.318-9.153-1.889-13.168l-42.694-77.64   c-5.022-9.13-16.495-12.462-25.626-7.442C93.16,7.359,89.828,18.832,94.85,27.964l39.27,71.412l-8.931,40.367   c-2.792,1.804-0.529-0.091-38.144,35.085c-10.656,9.965-11.216,26.682-1.251,37.338c4.523,4.837,88.819,94.975,93.2,99.66   l0.003-0.026C186.05,318.773,197.139,320.504,206.165,315.339z" fill="#FFFFFF"/>
	<path d="M146.68,426.904c-8.016,8.016-21.059,8.016-29.075,0c-17.822-17.822-46.818-17.822-64.64,0   c-8.016,8.016-21.06,8.016-29.075,0c-4.91-4.911-12.873-4.911-17.782,0c-4.911,4.91-4.911,12.872,0,17.782   c8.911,8.911,20.615,13.366,32.32,13.366s23.409-4.455,32.32-13.366c8.016-8.016,21.06-8.016,29.076,0   c17.822,17.822,46.818,17.822,64.64,0c4.911-4.91,4.911-12.872,0-17.782C159.553,421.993,151.59,421.993,146.68,426.904z" fill="#FFFFFF"/>
	<path d="M146.68,379.593c-8.016,8.016-21.059,8.016-29.075,0c-17.822-17.822-46.818-17.822-64.64,0   c-8.016,8.016-21.06,8.016-29.075,0c-4.91-4.911-12.873-4.911-17.782,0c-4.911,4.91-4.911,12.872,0,17.782   c8.911,8.911,20.615,13.366,32.32,13.366s23.409-4.455,32.32-13.366c8.016-8.016,21.06-8.016,29.076,0   c17.822,17.822,46.818,17.822,64.64,0c4.911-4.91,4.911-12.872,0-17.782C159.553,374.682,151.59,374.682,146.68,379.593z" fill="#FFFFFF"/>
	<path d="M440.54,363.988H204.615c-8.333,0-15.089,6.756-15.089,15.089v63.887c0,8.333,6.756,15.089,15.089,15.089   c8.333,0,15.089-6.755,15.089-15.089v-48.798H440.54c8.333,0,15.089-6.756,15.089-15.089   C455.629,370.743,448.873,363.988,440.54,363.988z" fill="#FFFFFF"/>
</g>
<g>
</g>
<g>
</g>
<g>
</g>
<g>
</g>
<g>
</g>
<g>
</g>
<g>
</g>
<g>
</g>
<g>
</g>
<g>
</g>
<g>
</g>
<g>
</g>
<g>
</g>
<g>
</g>
<g>
</g>
</svg>
