<?xml version="1.0" encoding="iso-8859-1"?>
<!-- Generator: Adobe Illustrator 18.0.0, SVG Export Plug-In . SVG Version: 6.00 Build 0)  -->
<!DOCTYPE svg PUBLIC "-//W3C//DTD SVG 1.1//EN" "http://www.w3.org/Graphics/SVG/1.1/DTD/svg11.dtd">
<svg xmlns="http://www.w3.org/2000/svg" xmlns:xlink="http://www.w3.org/1999/xlink" version="1.1" id="Capa_1" x="0px" y="0px" viewBox="0 0 460.447 460.447" style="enable-background:new 0 0 460.447 460.447;" xml:space="preserve" width="512px" height="512px">
<g>
	<path d="M78.387,277.859c40.7-18.383,93.777-29.506,151.837-29.506c58.06,0,111.137,11.123,151.836,29.506   c4.993,2.255,10.88,0.163,13.322-4.742c12.702-25.511,19.859-54.363,19.859-84.914C415.241,84.261,332.406,0,230.224,0   C128.041,0,45.206,84.261,45.206,188.202c0,30.551,7.158,59.403,19.859,84.914C67.509,278.026,73.388,280.116,78.387,277.859z" fill="#FFFFFF"/>
	<path d="M452.304,368.714h-15.877c-14.904-31.146-55.707-46.394-92.328-46.394c-31.603,0-66.515,11.1-85.464,35.382   c-7.554-6.748-17.51-10.86-28.412-10.86c-10.902,0-20.859,4.112-28.413,10.86c-18.992-24.338-53.902-35.382-85.463-35.382   c-36.505,0-77.426,15.25-92.328,46.394H8.143c-3.132,0-5.67,2.539-5.67,5.671v33.998c0,3.132,2.539,5.671,5.67,5.671H24.02   c14.904,31.146,55.707,46.394,92.328,46.394c46.462,0,97.534-24.359,97.534-70.904c0-9.01,7.33-16.34,16.341-16.34   c9.01,0,16.34,7.33,16.34,16.34c0,46.549,51.076,70.904,97.535,70.904c36.505,0,77.425-15.25,92.328-46.394h15.877   c3.132,0,5.671-2.539,5.671-5.671v-33.998C457.974,371.253,455.435,368.714,452.304,368.714z M116.348,434.087   c-38.579,0-71.172-19.556-71.172-42.703s32.593-42.703,71.172-42.703c38.579,0,71.172,19.556,71.172,42.703   S154.928,434.087,116.348,434.087z M344.099,434.087c-38.579,0-71.172-19.556-71.172-42.703s32.593-42.703,71.172-42.703   s71.172,19.556,71.172,42.703S382.678,434.087,344.099,434.087z" fill="#FFFFFF"/>
</g>
<g>
</g>
<g>
</g>
<g>
</g>
<g>
</g>
<g>
</g>
<g>
</g>
<g>
</g>
<g>
</g>
<g>
</g>
<g>
</g>
<g>
</g>
<g>
</g>
<g>
</g>
<g>
</g>
<g>
</g>
</svg>
